<svg width="40" height="37" viewBox="0 0 40 37" fill="none" xmlns="http://www.w3.org/2000/svg">
<path d="M31.7995 29.054C31.4449 28.8081 30.9581 28.8965 30.7124 29.2511C30.4743 29.5949 30.2045 29.9291 29.91 30.2446C29.7128 30.4563 29.4414 30.7114 29.146 30.9627C28.8174 31.2424 28.7778 31.7354 29.0574 32.0641C29.2119 32.2457 29.4317 32.3389 29.6528 32.3389C29.8317 32.3389 30.0117 32.2778 30.1588 32.1526C30.5033 31.8593 30.8126 31.5681 31.0528 31.3102C31.3982 30.94 31.7159 30.5467 31.9968 30.1411C32.2425 29.7864 32.1542 29.2997 31.7995 29.054Z" fill="#86BC42"/>
<path d="M28.3967 32.5568C28.2134 32.1662 27.7484 31.9981 27.3576 32.1813L27.3332 32.1923C26.9384 32.3664 26.7597 32.8277 26.9339 33.2224C27.0629 33.5146 27.3489 33.6884 27.649 33.6884C27.7544 33.6884 27.8615 33.667 27.964 33.6217C27.9831 33.6134 28.002 33.6048 28.021 33.596C28.4116 33.4127 28.5798 32.9476 28.3967 32.5568Z" fill="#86BC42"/>
<path d="M37.666 0.98996H2.33398C1.04695 0.98996 0 2.03707 0 3.32394V25.2186C0 26.5054 1.04695 27.5524 2.33398 27.5524H18.786C19.4834 30.5032 21.0605 32.593 22.4389 33.9319C24.4507 35.8865 26.757 36.9273 27.6483 36.9273C28.5396 36.9273 30.8458 35.8865 32.8577 33.932C34.2361 32.593 35.8133 30.5032 36.5106 27.5525H37.666C38.953 27.5525 40 26.5055 40 25.2187V3.32394C40 2.03707 38.953 0.98996 37.666 0.98996ZM35.3124 24.3507C35.3125 28.4669 33.4124 31.1973 31.8184 32.763C29.9275 34.6203 27.9879 35.3427 27.6483 35.3647C27.3086 35.3427 25.3689 34.6204 23.4781 32.763C21.8842 31.1973 19.9841 28.4669 19.9841 24.3507V20.5034C22.6739 19.7255 25.1908 18.6609 27.6485 17.2618C30.0509 18.6253 32.6806 19.7373 35.3124 20.5029V24.3507ZM38.4375 25.2186C38.4375 25.6439 38.0913 25.9899 37.666 25.9899H36.7824C36.8422 25.4664 36.875 24.9205 36.875 24.3507V19.911C36.875 19.5584 36.6388 19.2495 36.2985 19.1571C33.4616 18.3867 30.6068 17.1863 28.0429 15.6856C27.7992 15.5429 27.4974 15.5431 27.2535 15.6857C24.617 17.229 21.9166 18.3644 18.9981 19.1571C18.6579 19.2496 18.4216 19.5584 18.4216 19.911V24.3507C18.4216 24.9205 18.4543 25.4664 18.5143 25.9899H2.33398C1.90859 25.9899 1.5625 25.6438 1.5625 25.2186V11.9273H38.4375V25.2186ZM38.4375 11.9273H1.5625V7.24002H38.4375V11.9273ZM38.4375 7.24002H1.5625V3.32394C1.5625 2.89855 1.90859 2.55246 2.33398 2.55246H37.666C38.0913 2.55246 38.4375 2.89855 38.4375 3.32394V7.24002Z" fill="#86BC42"/>
<path d="M15.7674 15.9587H15.7326C15.328 15.9587 15 16.2945 15 16.7087C15 17.1229 15.328 17.4587 15.7326 17.4587H15.7674C16.1719 17.4587 16.5 17.1228 16.5 16.7087C16.5 16.2945 16.1719 15.9587 15.7674 15.9587Z" fill="#86BC42"/>
<rect x="4" y="15.9587" width="10" height="1.5" rx="0.75" fill="#86BC42"/>
<rect x="4" y="10.9587" width="32" height="1.5" rx="0.75" fill="#86BC42"/>
<rect x="4" y="5.95871" width="32" height="1.5" rx="0.75" fill="#86BC42"/>
<path d="M31.9366 22.5544C31.6316 22.2495 31.137 22.2493 30.8318 22.5543L26.6539 26.7319L24.4646 24.5425C24.1595 24.2376 23.6648 24.2375 23.3597 24.5425C23.0546 24.8476 23.0545 25.3423 23.3597 25.6474L26.1015 28.3892C26.2541 28.5418 26.454 28.6181 26.6539 28.6181C26.8538 28.6181 27.0538 28.5418 27.2063 28.3892L31.9365 23.6593C32.2416 23.3543 32.2416 22.8596 31.9366 22.5544Z" fill="#86BC42"/>
</svg>
