<svg width="50" height="31" viewBox="0 0 50 31" fill="none" xmlns="http://www.w3.org/2000/svg">
<path d="M36.4587 25.9467H40.6253C41.2003 25.9467 41.667 25.4757 41.667 24.8955C41.667 24.3152 41.2003 23.8442 40.6253 23.8442H36.4587C35.8837 23.8442 35.417 24.3152 35.417 24.8955C35.417 25.4757 35.8837 25.9467 36.4587 25.9467Z" fill="#86BC42"/>
<path d="M2.604 25.9464H5.20817C5.78317 25.9464 6.24983 25.4755 6.24983 24.8952C6.24983 24.3149 5.78317 23.844 5.20817 23.844H3.46858L2.06441 16.292C2.08316 12.4277 5.354 9.12686 9.37483 9.12686H16.2144L19.529 23.844H13.5415C12.9665 23.844 12.4998 24.3149 12.4998 24.8952C12.4998 25.4755 12.9665 25.9464 13.5415 25.9464H20.8332C21.1498 25.9464 21.4498 25.8014 21.6478 25.5512C21.8457 25.3031 21.9207 24.9751 21.8498 24.6639L18.0623 7.84437C17.954 7.36291 17.5332 7.02441 17.0457 7.02441H9.37483C4.20608 7.02441 -0.000168046 11.2693 -0.000168046 16.4854L1.58108 25.0886C1.67275 25.5869 2.10192 25.9464 2.604 25.9464Z" fill="#86BC42"/>
<path d="M9.37467 30.1514C12.2455 30.1514 14.583 27.7945 14.583 24.8953C14.583 21.996 12.2455 19.6392 9.37467 19.6392C6.50384 19.6392 4.16634 21.996 4.16634 24.8953C4.16634 27.7945 6.50384 30.1514 9.37467 30.1514ZM9.37467 21.7416C11.0976 21.7416 12.4997 23.1566 12.4997 24.8953C12.4997 26.634 11.0976 28.0489 9.37467 28.0489C7.65175 28.0489 6.24967 26.634 6.24967 24.8953C6.24967 23.1566 7.65175 21.7416 9.37467 21.7416Z" fill="#86BC42"/>
<path d="M32.2917 30.1514C35.1625 30.1514 37.5 27.7945 37.5 24.8953C37.5 21.996 35.1625 19.6392 32.2917 19.6392C29.4208 19.6392 27.0833 21.996 27.0833 24.8953C27.0833 27.7945 29.4208 30.1514 32.2917 30.1514ZM32.2917 21.7416C34.0146 21.7416 35.4167 23.1566 35.4167 24.8953C35.4167 26.634 34.0146 28.0489 32.2917 28.0489C30.5687 28.0489 29.1667 26.634 29.1667 24.8953C29.1667 23.1566 30.5687 21.7416 32.2917 21.7416Z" fill="#86BC42"/>
<path d="M36.458 7.02432H44.7913C45.3663 7.02432 45.833 6.55337 45.833 5.9731C45.833 5.39282 45.3663 4.92188 44.7913 4.92188H36.458C35.883 4.92188 35.4163 5.39282 35.4163 5.9731C35.4163 6.55337 35.883 7.02432 36.458 7.02432Z" fill="#86BC42"/>
<path d="M36.4587 13.3319H46.8753C47.4503 13.3319 47.917 12.861 47.917 12.2807C47.917 11.7004 47.4503 11.2295 46.8753 11.2295H36.4587C35.8837 11.2295 35.417 11.7004 35.417 12.2807C35.417 12.861 35.8837 13.3319 36.4587 13.3319Z" fill="#86BC42"/>
<path d="M36.4583 19.6391H48.9583C49.5333 19.6391 50 19.1681 50 18.5878C50 18.0076 49.5333 17.5366 48.9583 17.5366H36.4583C35.8833 17.5366 35.4167 18.0076 35.4167 18.5878C35.4167 19.1681 35.8833 19.6391 36.4583 19.6391Z" fill="#86BC42"/>
<path d="M20.8337 25.9466H28.1253C28.7003 25.9466 29.167 25.4757 29.167 24.8954C29.167 24.3151 28.7003 23.8442 28.1253 23.8442H21.6649L16.9316 2.81973H40.6253C41.2003 2.81973 41.667 2.34878 41.667 1.76851C41.667 1.18823 41.2003 0.717285 40.6253 0.717285H15.6253C15.3087 0.717285 15.0087 0.862354 14.8107 1.11255C14.6128 1.36063 14.5378 1.68862 14.6087 1.99978L19.817 25.1267C19.9253 25.6082 20.3482 25.9466 20.8337 25.9466Z" fill="#86BC42"/>
</svg>
